<svg viewBox="30 15 150 150" xmlns="http://www.w3.org/2000/svg">
    <linearGradient id="gradient"   x1="00%" y1="0%"    x2="100%" y2="100%">

        <stop offset="0%" style="stop-color: #000000;"></stop>
        <stop offset="100%" style="stop-color: #6f6e6e7d;"></stop>
      </linearGradient>
    <path fill="url(#gradient)" d="M46,-54.8C60.6,-42.5,74.3,-29,77.1,-13.5C79.9,1.9,71.8,19.3,61.2,33.1C50.6,46.8,37.5,56.9,22.9,61.7C8.3,66.5,-7.8,66.1,-21.5,60.6C-35.3,55,-46.6,44.2,-55,31.1C-63.4,17.9,-69,2.4,-69.8,-15.7C-70.7,-33.8,-66.9,-54.5,-54.5,-67.2C-42,-79.9,-21,-84.8,-2.7,-81.6C15.7,-78.4,31.3,-67.2,46,-54.8Z" transform="translate(100 100)" />
    <filter id="blur">
        <feGaussianBlur stdDeviation="10"></feGaussianBlur>
    </filter>
  </svg>